<?xml version="1.0" encoding="UTF-8"?>
<svg width="140px" height="125px" viewBox="0 0 140 125" version="1.1" xmlns="http://www.w3.org/2000/svg" xmlns:xlink="http://www.w3.org/1999/xlink">
    <desc>Created with Sketch.</desc>
    <g id="Page-1" stroke="none" stroke-width="1" fill="none" fill-rule="evenodd">
        <g id="Group-11" transform="translate(1.000000, 1.000000)">
            <g id="Group-10">
                <path d="M51.4893913,86.8587426 L20.0347826,86.8587426 C17.4302609,86.8587426 14.8257391,86.1596458 12.621913,84.7614522 C7.61321739,81.6654522 7.10542736e-15,74.9740974 7.10542736e-15,62.1906135 C7.10542736e-15,47.2099684 10.0173913,40.6184845 18.8326957,38.4213232 L18.8326957,38.4213232 C18.6323478,37.0231297 18.5321739,35.6249361 18.5321739,34.2267426 C18.5321739,22.0424845 26.9467826,7.96067804 39.168,2.96712965 C54.6949565,-3.52448325 68.9196522,1.36919417 78.336,10.5573232 C82.6434783,14.8517748 85.8490435,20.1449361 87.9526957,25.9374522 C90.8577391,22.0424845 95.1652174,20.0450651 99.4726957,20.0450651 C106.785391,20.0450651 114.098087,25.8375813 114.899478,37.7222264 L114.799304,38.0218393 C122.913391,39.3201619 137.037913,44.9129361 137.037913,62.3903555 C137.037913,76.4721619 128.222609,82.5642909 121.510957,85.1609361" id="Path" stroke="#232F3E" stroke-width="2" stroke-linejoin="round"></path>
                <ellipse id="Oval" stroke="#232F3E" stroke-width="2" stroke-linejoin="round" cx="89.0546087" cy="75.6731942" rx="27.8483478" ry="27.764129"></ellipse>
                <path d="M113.897739,88.8561619 L134.934261,109.928936 C137.638957,112.625452 137.638957,117.119646 134.834087,119.916033 C132.029217,122.71242 127.521391,122.812291 124.816696,120.015904 L104.080696,99.3426135" id="Path" stroke="#232F3E" stroke-width="2" stroke-linejoin="round"></path>
                <line x1="74.3791304" y1="67.3693048" x2="100.29913" y2="67.3693048" id="Path-7" stroke="#527FFF" stroke-width="1.3779648"></line>
                <line x1="74.3791304" y1="76.1121619" x2="100.29913" y2="76.1121619" id="Path-7" stroke="#527FFF" stroke-width="1.3779648"></line>
                <line x1="74.3791304" y1="84.8550191" x2="100.29913" y2="84.8550191" id="Path-7" stroke="#527FFF" stroke-width="1.3779648"></line>
                <circle id="Oval" stroke="#527FFF" stroke-width="1.728" fill="#FDFDFD" cx="92.2762733" cy="84.6493048" r="3.49714286"></circle>
                <circle id="Oval" stroke="#527FFF" stroke-width="1.728" fill="#FDFDFD" cx="82.1962733" cy="76.0093048" r="3.49714286"></circle>
                <circle id="Oval" stroke="#527FFF" stroke-width="1.728" fill="#FDFDFD" cx="90.8362733" cy="67.3693048" r="3.49714286"></circle>
            </g>
        </g>
    </g>
</svg>