<?xml version="1.0" encoding="UTF-8"?>
<svg xmlns="http://www.w3.org/2000/svg" width="512" height="512" viewBox="0 0 512 512" fill="none">
  <rect width="512" height="512" rx="144" fill="black"></rect>
  <path d="M167.493 374.018C136.241 339.642 118.989 294.977 118.989 248.305C118.989 230.238 121.489 212.422 126.49 195.359C106.488 220.452 93.4871 250.563 89.4868 282.431C88.4867 290.209 87.9867 297.988 87.9867 305.516C87.9867 349.428 104.238 391.332 133.49 423.953C166.743 460.588 213.997 481.665 263.251 481.665C321.506 481.665 376.01 452.056 408.263 404.38C378.01 424.454 342.257 435.495 305.254 435.495C297.254 435.495 289.253 434.993 280.752 433.739C237.499 427.967 197.246 406.89 167.493 374.018Z" fill="white"></path>
  <path d="M344.507 137.396C375.76 171.773 393.011 216.689 393.011 263.11C393.011 281.176 390.511 298.992 385.511 316.055C405.512 290.962 418.513 260.851 422.514 228.984C423.514 221.205 424.014 213.426 424.014 205.899C424.014 161.987 407.763 120.082 378.51 87.4619C345.257 51.0777 297.754 30 248.5 30C190.245 30 135.74 59.6092 103.488 107.285C133.74 87.211 169.493 76.1703 206.496 76.1703C214.497 76.1703 222.497 76.6721 230.998 77.9268C274.502 83.4471 314.755 104.776 344.507 137.396Z" fill="white"></path>
  <path d="M78.4858 280.925C84.2363 237.264 105.238 196.614 137.991 167.005C172.493 135.639 216.997 118.325 263.501 118.325C281.502 118.325 299.254 120.835 316.255 125.853C291.253 105.779 261.251 92.7311 229.498 88.7162C221.748 87.7125 213.997 87.2107 206.496 87.2107C162.743 87.2107 120.739 103.521 88.4866 132.879C51.9836 166.252 30.9819 213.677 30.9819 263.36C30.9819 321.826 60.4843 376.528 107.988 408.897C87.9866 378.535 76.9857 342.653 76.9857 305.516C76.9857 297.737 77.4857 289.457 78.4858 280.925Z" fill="white"></path>
  <path d="M404.012 102.768C424.013 133.13 435.014 169.013 435.014 206.15C435.014 214.179 434.514 222.46 433.264 230.74C427.514 274.401 406.512 315.051 373.759 344.661C339.506 376.026 294.753 393.34 248.499 393.34C230.497 393.34 212.746 390.831 195.745 385.812C220.747 405.886 250.749 418.935 282.502 422.949C290.252 423.953 298.003 424.455 305.504 424.455C349.257 424.455 391.011 408.145 423.513 378.786C460.016 345.413 481.018 297.988 481.018 248.556C481.018 189.84 451.515 135.138 404.012 102.768Z" fill="white"></path>
  <path d="M357.008 255.833C357.008 311.789 311.755 357.207 256 357.207C200.246 357.207 154.992 311.789 154.992 255.833C154.992 199.877 200.246 154.459 256 154.459C311.755 154.459 357.008 199.877 357.008 255.833Z" fill="white"></path>
</svg>
