<svg width="24" height="24" viewBox="0 0 24 24" fill="none" xmlns="http://www.w3.org/2000/svg">
<mask id="mask0_702_20632" style="mask-type:alpha" maskUnits="userSpaceOnUse" x="0" y="0" width="24" height="24">
<rect width="24" height="24" fill="#D9D9D9"/>
</mask>
<g mask="url(#mask0_702_20632)">
<path d="M15.4999 11C15.9166 11 16.2708 10.8542 16.5624 10.5625C16.8541 10.2708 16.9999 9.91667 16.9999 9.5C16.9999 9.08333 16.8541 8.72917 16.5624 8.4375C16.2708 8.14583 15.9166 8 15.4999 8C15.0833 8 14.7291 8.14583 14.4374 8.4375C14.1458 8.72917 13.9999 9.08333 13.9999 9.5C13.9999 9.91667 14.1458 10.2708 14.4374 10.5625C14.7291 10.8542 15.0833 11 15.4999 11ZM8.49994 11C8.91661 11 9.27077 10.8542 9.56244 10.5625C9.85411 10.2708 9.99994 9.91667 9.99994 9.5C9.99994 9.08333 9.85411 8.72917 9.56244 8.4375C9.27077 8.14583 8.91661 8 8.49994 8C8.08327 8 7.72911 8.14583 7.43744 8.4375C7.14577 8.72917 6.99994 9.08333 6.99994 9.5C6.99994 9.91667 7.14577 10.2708 7.43744 10.5625C7.72911 10.8542 8.08327 11 8.49994 11ZM8.99994 15.5H14.9999V14H8.99994V15.5ZM11.9999 22C10.6166 22 9.31661 21.7375 8.09994 21.2125C6.88327 20.6875 5.82494 19.975 4.92494 19.075C4.02494 18.175 3.31244 17.1167 2.78744 15.9C2.26244 14.6833 1.99994 13.3833 1.99994 12C1.99994 10.6167 2.26244 9.31667 2.78744 8.1C3.31244 6.88333 4.02494 5.825 4.92494 4.925C5.82494 4.025 6.88327 3.3125 8.09994 2.7875C9.31661 2.2625 10.6166 2 11.9999 2C13.3833 2 14.6833 2.2625 15.8999 2.7875C17.1166 3.3125 18.1749 4.025 19.0749 4.925C19.9749 5.825 20.6874 6.88333 21.2124 8.1C21.7374 9.31667 21.9999 10.6167 21.9999 12C21.9999 13.3833 21.7374 14.6833 21.2124 15.9C20.6874 17.1167 19.9749 18.175 19.0749 19.075C18.1749 19.975 17.1166 20.6875 15.8999 21.2125C14.6833 21.7375 13.3833 22 11.9999 22ZM11.9999 20C14.2333 20 16.1249 19.225 17.6749 17.675C19.2249 16.125 19.9999 14.2333 19.9999 12C19.9999 9.76667 19.2249 7.875 17.6749 6.325C16.1249 4.775 14.2333 4 11.9999 4C9.76661 4 7.87494 4.775 6.32494 6.325C4.77494 7.875 3.99994 9.76667 3.99994 12C3.99994 14.2333 4.77494 16.125 6.32494 17.675C7.87494 19.225 9.76661 20 11.9999 20Z" fill="#515156"/>
</g>
</svg>
