<?xml version="1.0" encoding="UTF-8"?>
<svg width="34px" height="35px" viewBox="0 0 34 35" version="1.1" xmlns="http://www.w3.org/2000/svg" xmlns:xlink="http://www.w3.org/1999/xlink">
    <!-- Generator: Sketch 59.1 (86144) - https://sketch.com -->
    <title>Group 6</title>
    <desc>Created with Sketch.</desc>
    <g id="Page-1" stroke="none" stroke-width="1" fill="none" fill-rule="evenodd">
        <g id="Artboard" transform="translate(-363.000000, -252.000000)">
            <g id="Group-6" transform="translate(364.000000, 253.357432)">
                <circle id="Oval-2" stroke="#0070B7" stroke-width="1.28463104" fill="#0070B7" cx="16.057888" cy="16.057888" r="16.057888"></circle>
                <g id="noun_like_567772-2" transform="translate(6.576845, 6.292214)" fill="#FFFFFF" fill-rule="nonzero">
                    <g id="noun_like_567772">
                        <path d="M12.784093,4.86907267 C13.1526434,3.54794226 12.9222994,2.13410094 12.1621641,0.998392337 L11.8627169,0.534837806 C11.6323729,0.187171908 11.240788,-0.0214276308 10.8261688,0.00175009575 C10.4115496,0.0249278223 10.0429992,0.256705088 9.83568954,0.650726439 C9.49017352,1.34605824 9.05251988,1.97185685 8.56879745,2.52812229 C8.13114381,3.03803227 7.76259339,3.36252045 7.32493975,3.71018634 C6.93335492,4.05785224 6.47266689,4.42869587 5.94287565,5.00813903 C5.3209468,5.6802931 4.76812116,6.44515808 4.28439872,7.23320078 L1.24385769,7.69675531 C0.52979124,7.81264394 0,8.43844256 0,9.15695208 L0.0691032052,14.6037178 C0.0691032052,15.3917605 0.737100856,16.0407369 1.52027051,16.0407369 L5.71253163,16.0407369 L11.7705793,17.5472891 L11.7936137,17.5472891 C12.0700265,17.6168223 12.3694737,17.64 12.6458866,17.64 C14.2813291,17.64 15.8015996,16.6897132 16.4926316,15.1368055 C16.8611821,14.3255851 17.2066981,13.4448315 17.5291797,12.5409002 C17.9668334,11.3124807 18.3353838,10.0377057 18.5887622,8.739753 C18.6808998,8.25302075 18.5657278,7.74311076 18.289315,7.34908941 C17.9898678,6.95506806 17.5522141,6.70011307 17.0454573,6.63057989 C16.2392532,6.56104671 15.5712556,6.49151353 14.9723611,6.42198035 C14.0279507,6.32926944 13.1987122,6.25973626 12.1160953,6.14384763 L12.7610586,4.86907267 L12.784093,4.86907267 Z M14.8341547,8.11395439 C15.4560836,8.16030984 16.1010468,8.22984302 16.9072509,8.32255393 C16.9533197,8.32255393 16.9993885,8.36890938 17.0224229,8.39208711 C17.0454573,8.41526483 17.0684917,8.46162029 17.0454573,8.50797574 C16.8151133,9.71321752 16.4695972,10.9184593 16.054978,12.0541679 C15.7324964,12.9117438 15.4100148,13.7461419 15.0644987,14.5341846 C14.5807763,15.6467155 13.359953,16.2493364 12.1851985,16.0175591 L5.94287565,14.4646515 L1.70454573,14.4646515 L1.63544252,9.31919617 L5.3209468,8.76293073 L5.50522202,8.41526483 C5.94287565,7.6040444 6.49570129,6.83917943 7.11763014,6.14384763 C7.57831817,5.63393765 7.9468686,5.3326272 8.36148783,4.9849613 C8.79914146,4.61411768 9.2598295,4.24327405 9.76658634,3.61747544 C10.1812056,3.13074318 10.5727904,2.59765547 10.895272,2.04139003 C11.3098913,2.73672183 11.4250633,3.57111998 11.240788,4.35916269 L9.62837993,7.55768895 L10.7801,7.69675531 C12.4846457,7.88217712 13.590297,7.99806576 14.8341547,8.11395439 Z" id="Shape"></path>
                    </g>
                </g>
            </g>
        </g>
    </g>
</svg>